<svg width="32" height="32" viewBox="0 0 32 32" fill="none" xmlns="http://www.w3.org/2000/svg">
<path d="M24.786 0H7.214C3.22982 0 0 3.22982 0 7.214V24.786C0 28.7702 3.22982 32 7.214 32H24.786C28.7702 32 32 28.7702 32 24.786V7.214C32 3.22982 28.7702 0 24.786 0Z" fill="#06C755"/>
<path d="M26.6671 14.491C26.6671 9.71701 21.8811 5.83301 15.9981 5.83301C10.1151 5.83301 5.3291 9.71701 5.3291 14.491C5.3291 18.771 9.1291 22.356 14.2511 23.033C14.5991 23.108 15.0721 23.262 15.1911 23.559C15.2991 23.829 15.2621 24.252 15.2261 24.524C15.2261 24.524 15.1011 25.277 15.0741 25.437C15.0271 25.707 14.8591 26.492 15.9981 26.013C17.1371 25.534 22.1421 22.395 24.3801 19.818C25.9261 18.123 26.6671 16.399 26.6671 14.491Z" fill="white"/>
<path d="M23.117 17.2493H20.117C20.0639 17.2493 20.0131 17.2283 19.9756 17.1908C19.9381 17.1533 19.917 17.1024 19.917 17.0493V12.3943C19.917 12.3413 19.9381 12.2904 19.9756 12.2529C20.0131 12.2154 20.0639 12.1943 20.117 12.1943H23.117C23.17 12.1943 23.2209 12.2154 23.2584 12.2529C23.2959 12.2904 23.317 12.3413 23.317 12.3943V13.1513C23.317 13.2044 23.2959 13.2552 23.2584 13.2928C23.2209 13.3303 23.17 13.3513 23.117 13.3513H21.08V14.1363H23.117C23.17 14.1363 23.2209 14.1574 23.2584 14.1949C23.2959 14.2324 23.317 14.2833 23.317 14.3363V15.1003C23.317 15.1534 23.2959 15.2043 23.2584 15.2418C23.2209 15.2793 23.17 15.3003 23.117 15.3003H21.08V16.0863H23.117C23.17 16.0863 23.2209 16.1074 23.2584 16.1449C23.2959 16.1824 23.317 16.2333 23.317 16.2863V17.0423C23.3179 17.0692 23.3135 17.0959 23.3038 17.121C23.2942 17.1461 23.2796 17.169 23.2609 17.1883C23.2423 17.2076 23.2199 17.223 23.1952 17.2335C23.1704 17.244 23.1439 17.2494 23.117 17.2493Z" fill="#06C755"/>
<path d="M12.0281 17.2484C12.0811 17.2484 12.132 17.2273 12.1695 17.1898C12.207 17.1523 12.2281 17.1014 12.2281 17.0484V16.2924C12.2281 16.2393 12.207 16.1885 12.1695 16.151C12.132 16.1135 12.0811 16.0924 12.0281 16.0924H9.99105V12.3924C9.99105 12.3393 9.96998 12.2885 9.93248 12.251C9.89497 12.2135 9.8441 12.1924 9.79105 12.1924H9.03105C8.97801 12.1924 8.92714 12.2135 8.88963 12.251C8.85213 12.2885 8.83105 12.3393 8.83105 12.3924V17.0454C8.83105 17.0984 8.85213 17.1493 8.88963 17.1868C8.92714 17.2243 8.97801 17.2454 9.03105 17.2454H12.0311L12.0281 17.2484Z" fill="#06C755"/>
<path d="M13.833 12.1855H13.077C12.9644 12.1855 12.873 12.2769 12.873 12.3895V17.0455C12.873 17.1582 12.9644 17.2495 13.077 17.2495H13.833C13.9457 17.2495 14.037 17.1582 14.037 17.0455V12.3895C14.037 12.2769 13.9457 12.1855 13.833 12.1855Z" fill="#06C755"/>
<path d="M18.9843 12.1855H18.2283C18.1753 12.1855 18.1244 12.2066 18.0869 12.2441C18.0494 12.2816 18.0283 12.3325 18.0283 12.3855V15.1515L15.8983 12.2745C15.8935 12.2669 15.8878 12.2599 15.8813 12.2535L15.8693 12.2415L15.8583 12.2325H15.8523L15.8413 12.2245H15.8353L15.8243 12.2185H15.8173H15.8063H15.7993H15.7873H15.7793H15.7673H15.7593H15.7483H14.9773C14.9243 12.2185 14.8734 12.2396 14.8359 12.2771C14.7984 12.3146 14.7773 12.3655 14.7773 12.4185V17.0745C14.7773 17.1276 14.7984 17.1785 14.8359 17.216C14.8734 17.2535 14.9243 17.2745 14.9773 17.2745H15.7343C15.7874 17.2745 15.8383 17.2535 15.8758 17.216C15.9133 17.1785 15.9343 17.1276 15.9343 17.0745V14.2815L18.0673 17.1615C18.0813 17.1819 18.0989 17.1996 18.1193 17.2135L18.1313 17.2215H18.1373L18.1473 17.2265H18.1573H18.1643H18.1783C18.196 17.2309 18.2141 17.2333 18.2323 17.2335H18.9843C19.0374 17.2335 19.0883 17.2125 19.1258 17.175C19.1633 17.1375 19.1843 17.0866 19.1843 17.0335V12.3895C19.1849 12.3629 19.1801 12.3365 19.1703 12.3118C19.1605 12.2871 19.1458 12.2645 19.1272 12.2455C19.1086 12.2265 19.0863 12.2114 19.0618 12.2011C19.0373 12.1908 19.0109 12.1855 18.9843 12.1855Z" fill="#06C755"/>
</svg>
