<svg width="32" height="32" viewBox="0 0 32 32" fill="none" xmlns="http://www.w3.org/2000/svg">
<path d="M20.3522 4.64495C19.3587 5.82168 17.6873 6.68873 16.3469 6.68873C16.205 6.68873 16.0473 6.67325 15.9527 6.65777C15.9369 6.58035 15.8896 6.36359 15.8896 6.13134C15.8896 4.64495 16.6781 3.14309 17.5138 2.2141C18.5861 0.97544 20.3679 0.0619327 21.8502 0C21.8975 0.170315 21.9133 0.371596 21.9133 0.588361C21.9133 2.07475 21.2668 3.56113 20.3522 4.64495ZM21.3929 7.01388C22.2286 7.01388 25.2562 7.0913 27.2431 9.89375C27.0696 10.0176 24.0578 11.6898 24.0578 15.4058C24.0578 19.7101 27.8896 21.2429 28 21.2739C27.9842 21.3668 27.4008 23.3486 25.9816 25.3924C24.7359 27.173 23.3955 28.969 21.3929 28.969C19.3745 28.969 18.8699 27.8078 16.5677 27.8078C14.297 27.8078 13.4928 29 11.6636 29C9.81866 29 8.54139 27.3278 7.0749 25.315C5.37188 22.9306 4 19.2146 4 15.6999C4 10.0796 7.72142 7.0913 11.3955 7.0913C13.3509 7.0913 14.9593 8.34544 16.205 8.34544C17.3561 8.34544 19.1695 7.01388 21.3929 7.01388Z" fill="#EAF3F1"/>
</svg>
